<svg version="1.1" viewBox="0.0 0.0 960.0 720.0" fill="none" stroke="none" stroke-linecap="square" stroke-miterlimit="10" xmlns:xlink="http://www.w3.org/1999/xlink" xmlns="http://www.w3.org/2000/svg"><clipPath id="p.0"><path d="m0 0l960.0 0l0 720.0l-960.0 0l0 -720.0z" clip-rule="nonzero"/></clipPath><g clip-path="url(#p.0)"><path fill="#000000" fill-opacity="0.0" d="m0 0l960.0 0l0 720.0l-960.0 0z" fill-rule="evenodd"/><path fill="#cc702f" d="m146.79527 358.57742l0 0c0 -190.84698 154.74025 -345.55905 345.62207 -345.55905l0 0c91.66464 0 179.57498 36.407013 244.3917 101.21191c64.81671 64.80489 101.23035 152.69919 101.23035 244.34714l0 0c0 190.84702 -154.74023 345.55905 -345.62204 345.55905l0 0c-190.8818 0 -345.62207 -154.71204 -345.62207 -345.55905z" fill-rule="evenodd"/><path stroke="#000000" stroke-width="16.0" stroke-linejoin="round" stroke-linecap="butt" d="m146.79527 358.57742l0 0c0 -190.84698 154.74025 -345.55905 345.62207 -345.55905l0 0c91.66464 0 179.57498 36.407013 244.3917 101.21191c64.81671 64.80489 101.23035 152.69919 101.23035 244.34714l0 0c0 190.84702 -154.74023 345.55905 -345.62204 345.55905l0 0c-190.8818 0 -345.62207 -154.71204 -345.62207 -345.55905z" fill-rule="evenodd"/><path fill="#000000" fill-opacity="0.0" d="m492.41733 13.018373l0 691.1181" fill-rule="evenodd"/><path stroke="#000000" stroke-width="16.0" stroke-linejoin="round" stroke-linecap="butt" d="m492.41733 13.018373l0 691.1181" fill-rule="evenodd"/><path fill="#000000" fill-opacity="0.0" d="m146.79527 358.57742l691.2441 0" fill-rule="evenodd"/><path stroke="#000000" stroke-width="16.0" stroke-linejoin="round" stroke-linecap="butt" d="m146.79527 358.57742l691.2441 0" fill-rule="evenodd"/><path fill="#000000" fill-opacity="0.0" d="m717.9994 98.08671c-48.370728 100.5592 -114.40411 218.95319 -91.65167 332.75116c14.07959 70.41998 69.85425 117.01883 95.80945 181.96872" fill-rule="evenodd"/><path stroke="#000000" stroke-width="16.0" stroke-linejoin="round" stroke-linecap="butt" d="m717.9994 98.08671c-48.370728 100.5592 -114.40411 218.95319 -91.65167 332.75116c14.07959 70.41998 69.85425 117.01883 95.80945 181.96872" fill-rule="evenodd"/><path fill="#000000" fill-opacity="0.0" d="m266.8325 98.08671c48.37079 100.5592 114.404144 218.95319 91.6517 332.75116c-14.079559 70.41998 -69.85428 117.01883 -95.80945 181.96872" fill-rule="evenodd"/><path stroke="#000000" stroke-width="16.0" stroke-linejoin="round" stroke-linecap="butt" d="m266.8325 98.08671c48.37079 100.5592 114.404144 218.95319 91.6517 332.75116c-14.079559 70.41998 -69.85428 117.01883 -95.80945 181.96872" fill-rule="evenodd"/></g></svg>